# xmcd CD database file
#
# Track frame offsets:
#	150
#	12991
#	27883
#	39435
#	51548
#	64306
#	75753
#	90494
#	104044
#	114769
#	126740
#	140215
#	153104
#	166083
#	177856
#	193608
#	208693
#	221497
#	237940
#	250112
#	262608
#	277134
#	289605
#	302246
#
# Disc length: 4209 seconds
#
# Revision: 2
# Processed by: cddbd v1.5.1PL2 Copyright (c) Steve Scherf et al.
# Submitted via: cdripper 1,0,33,916
#
DISCID=53106f18
DTITLE=Various Artist - Chicago Blues Electric Guitar
DYEAR=2002
DGENRE=Blues
TTITLE0=You Got The Best Go (Big Bill Broonzy 1945)
TTITLE1=Love Her With A Feeling (Tampa Red 1950)
TTITLE2=Killer Diller Blues (Memphis Minnie 1946)
TTITLE3=Knight Watchman Blues (Memphis Minnie 1950)
TTITLE4=Roll Dem Bones (Willie Lacey with Jazz Gillum 1946)
TTITLE5=You Got To Run Me Down (Willi Lacey with Jazz Gillum 1947)
TTITLE6=Homesick Blues (Leonard Caston 1946)
TTITLE7=I Can Trust My Baby (Sam Casimir with Eddie Boyd 1949)
TTITLE8=Pearly (Robert Jr. Lockwood 1951)
TTITLE9=Dust My Broom (alt.) (Robert Jr. Lockwood 1951)
TTITLE10=Black Angel Blues (Robert Nighthawk 1949)
TTITLE11=I Don't Know It (Arthur Crudup 1946)
TTITLE12=Too Much Competition (Arthur Crudup 1951)
TTITLE13=You're Gonna Miss Me (Muddy Waters 1948)
TTITLE14=Honey Bee (Muddy Waters 1951)
TTITLE15=Muskadine Blues (Little Walter 1950)
TTITLE16=Let Me Ride Your Mule (Johnny Williams and Johnny Young 1948)
TTITLE17=Dark Road (Floyd Jones 1951)
TTITLE18=Joliet Blues (Johnny Shines 1950)
TTITLE19=Goin' Away Blues (Jimmy Rogers 1950)
TTITLE20=Money, Marbles And Chalk (Jimmy Rogers 1951)
TTITLE21=Trouble In The Morning (John Brim 1951)
TTITLE22=Play A Little While (J.B. Lenoir 1951)
TTITLE23=Korea Blues (J.B. Lenoir 1951)
EXTD=YEAR: 2002
EXTT0=
EXTT1=
EXTT2=
EXTT3=
EXTT4=
EXTT5=
EXTT6=
EXTT7=
EXTT8=
EXTT9=
EXTT10=
EXTT11=
EXTT12=
EXTT13=
EXTT14=
EXTT15=
EXTT16=
EXTT17=
EXTT18=
EXTT19=
EXTT20=
EXTT21=
EXTT22=
EXTT23=
PLAYORDER=
